<?xml version="1.0" encoding="UTF-8" standalone="no"?>
<svg
   xmlns:dc="http://purl.org/dc/elements/1.1/"
   xmlns:cc="http://creativecommons.org/ns#"
   xmlns:rdf="http://www.w3.org/1999/02/22-rdf-syntax-ns#"
   xmlns:svg="http://www.w3.org/2000/svg"
   xmlns="http://www.w3.org/2000/svg"
   xmlns:sodipodi="http://sodipodi.sourceforge.net/DTD/sodipodi-0.dtd"
   xmlns:inkscape="http://www.inkscape.org/namespaces/inkscape"
   viewBox="0 0 1920 1080"
   version="1.1"
   id="svg469"
   sodipodi:docname="STRONA_Artboard 2.svg"
   inkscape:version="0.92.2 (5c3e80d, 2017-08-06)">
  <metadata
     id="metadata473">
    <rdf:RDF>
      <cc:Work
         rdf:about="">
        <dc:format>image/svg+xml</dc:format>
        <dc:type
           rdf:resource="http://purl.org/dc/dcmitype/StillImage" />
        <dc:title>STRONA</dc:title>
      </cc:Work>
    </rdf:RDF>
  </metadata>
  <sodipodi:namedview
     pagecolor="#ffffff"
     bordercolor="#666666"
     borderopacity="1"
     objecttolerance="10"
     gridtolerance="10"
     guidetolerance="10"
     inkscape:pageopacity="0"
     inkscape:pageshadow="2"
     inkscape:window-width="1920"
     inkscape:window-height="1001"
     id="namedview471"
     showgrid="false"
     inkscape:zoom="0.57894368"
     inkscape:cx="1014.619"
     inkscape:cy="521.69058"
     inkscape:window-x="-9"
     inkscape:window-y="-9"
     inkscape:window-maximized="1"
     inkscape:current-layer="svg469" />
  <defs
     id="defs4">
    <style
       id="style2">.cls-1{fill:#63e3d9;}.cls-2{fill:#1ab81d;}.cls-3{fill:#1a951d;}.cls-4{fill:#1a7c1d;}.cls-5{fill:#aca592;}.cls-6{fill:#ff947f;}.cls-7{fill:#523957;}.cls-8{fill:#b54980;}.cls-9{fill:#97f84a;}.cls-10{fill:#e20043;}.cls-11{fill:#f60;}.cls-12{fill:#f94e00;}.cls-13{fill:#392338;}.cls-14{fill:#848077;}.cls-15{fill:#ddd8cc;}.cls-16{fill:#dddad3;}.cls-17{fill:#872608;}.cls-18{fill:#efe5c9;}.cls-19{fill:#918c7e;}.cls-20{fill:#a03207;}.cls-21{fill:#de1975;}.cls-22{fill:#87837a;}.cls-23{fill:#453a38;}.cls-24{fill:#4ae326;}.cls-25{fill:#3ea820;}.cls-26{fill:#04abc1;}.cls-27{fill:#f58985;}.cls-28{fill:#c1264e;}.cls-29{fill:#c6f65a;}.cls-30{fill:#8500b8;}.cls-31{fill:#fffb00;}.cls-32{fill:#878581;}.cls-33{fill:#99948a;}.cls-34{fill:#2d6d03;}.cls-35{fill:#892a0c;}.cls-36{fill:#0db1b3;}.cls-37{fill:#412249;}.cls-38{fill:#0c6f24;}.cls-39{fill:#dad1bf;}.cls-40,.cls-42,.cls-43,.cls-48,.cls-49,.cls-50,.cls-51,.cls-52,.cls-56,.cls-58,.cls-61,.cls-65,.cls-72,.cls-73,.cls-74{fill:none;}.cls-40{stroke:#dad1bf;}.cls-40,.cls-42,.cls-43,.cls-48,.cls-49,.cls-50,.cls-51,.cls-52,.cls-56,.cls-58,.cls-61,.cls-65,.cls-72,.cls-73{stroke-miterlimit:10;}.cls-41{fill:#e20015;}.cls-42{stroke:#d85ba0;}.cls-43{stroke:#a078a0;}.cls-44{fill:#3f203f;}.cls-45{fill:#e56005;}.cls-46{fill:#ef8e4b;}.cls-47{fill:#c6bfaf;}.cls-48{stroke:#686660;}.cls-49{stroke:#b7b4a7;}.cls-50{stroke:#c417c9;}.cls-51{stroke:#d84012;}.cls-52{stroke:#ea4296;}.cls-53{fill:#c4bfb5;}.cls-54{fill:#938d7f;}.cls-55{fill:#0c7a7a;}.cls-56{stroke:#a5073c;}.cls-57{fill:#ffb273;}.cls-58{stroke:#96460b;}.cls-59{fill:#c96214;}.cls-60{fill:#5b5a57;}.cls-61{stroke:#4ae326;}.cls-62{fill:#fcfbfa;}.cls-63{fill:#c6c1b3;}.cls-64{fill:#72640f;}.cls-65{stroke:#204906;}.cls-66{fill:#a09018;}.cls-67{fill:#755f06;}.cls-68{fill:#b7a718;}.cls-69{fill:#772a15;}.cls-70{fill:#a08617;}.cls-71{fill:#561f0c;}.cls-72{stroke:#7c7b7b;}.cls-72,.cls-73{stroke-width:16px;}.cls-73{stroke:#c9c3c3;}</style>
    <clipPath
       clipPathUnits="userSpaceOnUse"
       id="clipPath1284">
      <rect
         style="fill:#643fff;fill-opacity:1;stroke:none;stroke-width:4.02519703;stroke-linecap:round;stroke-linejoin:round;stroke-miterlimit:4;stroke-dasharray:none;stroke-opacity:1"
         id="rect1286"
         width="1920"
         height="1171"
         x="0"
         y="0" />
    </clipPath>
    <clipPath
       clipPathUnits="userSpaceOnUse"
       id="clipPath1758">
      <rect
         style="fill:#643fff;fill-opacity:1;stroke:none;stroke-width:4.02519703;stroke-linecap:round;stroke-linejoin:round;stroke-miterlimit:4;stroke-dasharray:none;stroke-opacity:1"
         id="rect1760"
         width="1920"
         height="1302.29"
         x="0"
         y="0" />
    </clipPath>
    <clipPath
       clipPathUnits="userSpaceOnUse"
       id="clipPath1766">
      <rect
         style="fill:#643fff;fill-opacity:1;stroke:none;stroke-width:4.02519703;stroke-linecap:round;stroke-linejoin:round;stroke-miterlimit:4;stroke-dasharray:none;stroke-opacity:1"
         id="rect1768"
         width="1917.5573"
         height="1219.2367"
         x="2.4427481"
         y="0" />
    </clipPath>
    <clipPath
       clipPathUnits="userSpaceOnUse"
       id="clipPath1772">
      <rect
         style="fill:#643fff;fill-opacity:1;stroke:none;stroke-width:4.02519703;stroke-linecap:round;stroke-linejoin:round;stroke-miterlimit:4;stroke-dasharray:none;stroke-opacity:1"
         id="rect1774"
         width="1920"
         height="1080"
         x="0"
         y="0" />
    </clipPath>
    <clipPath
       clipPathUnits="userSpaceOnUse"
       id="clipPath1778">
      <rect
         style="fill:#643fff;fill-opacity:1;stroke:none;stroke-width:4.02519703;stroke-linecap:round;stroke-linejoin:round;stroke-miterlimit:4;stroke-dasharray:none;stroke-opacity:1"
         id="rect1780"
         width="1920"
         height="1080"
         x="0"
         y="0" />
    </clipPath>
  </defs>
  <title
     id="title6">STRONA</title>
  <g
     id="Background"
     clip-path="url(#clipPath1778)">
    <rect
       class="cls-1"
       width="1920"
       height="341"
       id="rect8" />
    <path
       class="cls-2"
       d="M1920,337.08c-66-23.36-732-75.16-960-62s-960,62-960,62V1171H1920Z"
       id="path10" />
    <path
       class="cls-3"
       d="M258,493.28S688.93,337.14,1187,294c292.2-25.31,839,31,844,85s59,54.95,99.1,98c97,111,109.9,173,109.9,173S254.12,548.79,258,493.28Z"
       id="path12"
       clip-path="url(#clipPath1284)" />
    <path
       class="cls-4"
       d="M-98,542c274-141,1783,23,2119,111s-75,588-75,588L-69,1217S-372,683-98,542Z"
       id="path14" />
  </g>
  <g
     id="Basics"
     clip-path="url(#clipPath1766)">
    <path
       class="cls-5"
       d="M89.56,335.57S82.5,320.5,83.5,299.5s14,4,14,4-1-32,16-2c4-22,20-7.62,20-7.62l-3,37.62Z"
       id="path17" />
    <path
       class="cls-6"
       d="M121.67,249.71s15.75,60.9,5.44,82.29c47.28-4.3,36.27-3.62,36.27-3.62l53.47-5.07,21.82-2S209,271,224.21,227.81C182.37,243.51,198.32,242.62,121.67,249.71Z"
       id="path19" />
    <path
       class="cls-7"
       d="M150.24,329.7s-12.41-40.77-8-47.86,23.93-3.54,23.93-3.54,7.51,39.4,13.95,50.27C169.74,329.7,150.24,329.7,150.24,329.7Z"
       id="path21" />
    <path
       class="cls-8"
       d="M137.06,179.82s-3.54,46.08-34.56,72.66c81.53,0,132-26.58,132-26.58s-47-31-47-51.4c-3.48.52-12.29,1.48-21.59,2.44C152.07,178.38,137.06,179.82,137.06,179.82Z"
       id="path23" />
    <path
       class="cls-5"
       d="M262.78,187.69s2.72-34.19-9.28-45.19c22-14,27-11,27-11s0,25.16,6,27.08-14-1.08-14-1.08S273.07,175.89,262.78,187.69Z"
       id="path25" />
    <path
       class="cls-9"
       d="M374.5,206.5s0,77,17,108C322.35,319,286,321.11,269,322c-9.33.5-12.89.65-12.89.65s6.4-97.17-3.6-109.17C300.5,217.5,336.5,222.5,374.5,206.5Z"
       id="path27" />
    <path
       class="cls-10"
       d="M236.5,212.5s38-25,36-56c34,3,49,2,80,0,23,36,43,37,43,37s-5.61,7.24-21.93,13.95C351.55,216.5,310,224.56,236.5,212.5Z"
       id="path29" />
    <path
       class="cls-11"
       d="M268.5,322.5s3-60,0-70c17-9,26,0,26,0s4,66.5,8,67.75S268.5,322.5,268.5,322.5Z"
       id="path31" />
    <polygon
       class="cls-12"
       points="319.5 251.5 321.5 269.5 349.5 267.5 349.5 249.5 319.5 251.5"
       id="polygon33" />
    <path
       class="cls-13"
       d="M185,259.35c0,.88,2.66,22.15,2.66,22.15l28.36-2.66-2.66-23Z"
       id="path35" />
    <path
       class="cls-14"
       d="M434.27,309.33l-9.84-37.46s1.75-14.87,12.25-21a11.55,11.55,0,0,1,6.12,12.25s4.38-17.5,7.87-14.87,7.88,4.37,10.5,9.62c6.12-13.12,9.62-12.25,9.62-12.25a15.84,15.84,0,0,1,9.63,12.25c5.24-12.25,10.49-14.87,10.49-14.87s7,5.25,6.13,13.12C503.16,243,508.41,243,508.41,243s7,6.12,6.12,12.25c9.62-9.63,14-10.5,14-10.5s5.24,8.75,4.37,14.87c10.5-13.12,14.87-14,14.87-14s11.42,38.05,8.33,55.33C529.4,302.48,434.27,309.33,434.27,309.33Z"
       id="path37" />
    <path
       class="cls-15"
       d="M410.5,36.5s-69-2-49,43c8,10,15,7,25,8-4,23,16,54,63,30,21,21,51,11,54,1,14,6,17-5,17-5,13,10,66-7,20-51S426.5,7.5,410.5,36.5Z"
       id="path39" />
    <path
       class="cls-16"
       d="M1372.5,51.5c-1,0-59-14-63,42,0,14,12,16,12,16s-21,43,56,42c16,0,30-16,30-16s29,39,66,12c13-7,23-4,23-4s51,27,85-7c6-9,4-5,7-14,16,10,42,15,63-16s-87-119-112-42c-41-57-84-29-84-29s-30-24-53,10C1373.5,31.5,1372.5,51.5,1372.5,51.5Z"
       id="path41" />
    <path
       class="cls-5"
       d="M437.27,309.33l-9.84-37.46s1.75-14.87,12.25-21a11.55,11.55,0,0,1,6.12,12.25s4.38-17.5,7.87-14.87,7.88,4.37,10.5,9.62c6.12-13.12,9.62-12.25,9.62-12.25a15.84,15.84,0,0,1,9.63,12.25c5.24-12.25,10.49-14.87,10.49-14.87s7,5.25,6.13,13.12C506.16,243,511.41,243,511.41,243s7,6.12,6.12,12.25c9.62-9.63,14-10.5,14-10.5s5.24,8.75,4.37,14.87c10.5-13.12,14.87-14,14.87-14s11.42,38.05,8.33,55.33C532.4,302.48,437.27,309.33,437.27,309.33Z"
       id="path43" />
    <path
       class="cls-17"
       d="M1476.32,294.31s-11.82-24.81-8.82-51.81l67,4s1,51,9,51S1490.13,293.11,1476.32,294.31Z"
       id="path45" />
    <path
       class="cls-18"
       d="M422.5,39.5s-69-2-49,43c8,10,15,7,25,8-4,23,16,54,63,30,21,21,51,11,54,1,14,6,17-5,17-5,13,10,66-7,20-51S438.5,10.5,422.5,39.5Z"
       id="path47" />
    <path
       class="cls-18"
       d="M1384.5,54.5c-1,0-59-14-63,42,0,14,12,16,12,16s-21,43,56,42c16,0,30-16,30-16s29,39,66,12c13-7,23-4,23-4s51,27,85-7c6-9,4-5,7-14,16,10,42,15,63-16s-87-119-112-42c-41-57-84-29-84-29s-30-24-53,10C1385.5,34.5,1384.5,54.5,1384.5,54.5Z"
       id="path49" />
    <path
       class="cls-19"
       d="M1774.5,105.5s-1.24,162.85-30.62,209.92c73.62,11.08,88.87,13.08,88.87,13.08s33.75-109,2.75-207C1804.5,129.5,1774.5,105.5,1774.5,105.5Z"
       id="path51" />
    <path
       class="cls-20"
       d="M1469.32,294.31s-11.82-24.81-8.82-51.81l67,4s1,51,9,51S1483.13,293.11,1469.32,294.31Z"
       id="path53" />
    <path
       class="cls-5"
       d="M1778.5,105.5s-1.24,162.85-30.62,209.92c73.62,11.08,88.87,13.08,88.87,13.08s33.75-109,2.75-207C1808.5,129.5,1778.5,105.5,1778.5,105.5Z"
       id="path55" />
    <path
       class="cls-21"
       d="M1759.5,90.5l18,18s58,35,87,7c-24-40-25-41-33-99C1831.5,16.5,1783.5,80.5,1759.5,90.5Z"
       id="path57" />
    <path
       class="cls-22"
       d="M1745.5,146.5c-2.06,27.68,1.15,37.61,28.78,45.41l-3.92,37.34s-38.86-29.75-44.86-54.75l5-31Z"
       id="path59" />
    <path
       class="cls-21"
       d="M1744.5,102.5s-13,31-32,36,51,9,51,9S1742.5,123.5,1744.5,102.5Z"
       id="path61" />
    <path
       class="cls-22"
       d="M1776.5,307.5s0-.12.13-.34c1.77-4.6,20.59-54.27,14.87-66.66h31s0,49.85-9.5,74.92C1796.5,310.5,1776.5,307.5,1776.5,307.5Z"
       id="path63" />
    <path
       class="cls-23"
       d="M1766,318.67s2.5-7.17,2.5-11.17c0-1,3.06-1,7.66-.44,13.78,1.69,41.34,8.44,41.34,8.44v11Z"
       id="path65" />
    <path
       class="cls-22"
       d="M1800.5,182.5s19-69,29,2C1801.5,184.5,1800.5,182.5,1800.5,182.5Z"
       id="path67" />
    <path
       class="cls-23"
       d="M1793.5,181.5s38,3,44,3c3,7-2,7-2,7s-41-1-42-3S1793.5,181.5,1793.5,181.5Z"
       id="path69" />
    <path
       class="cls-24"
       d="M1571.26,299.05c1.24.45,10.24-34.55,9.24-47.55s6.73,45.14,1,48C1577.5,301.5,1571.26,299.05,1571.26,299.05Z"
       id="path71" />
    <path
       class="cls-24"
       d="M1614.5,300.5s-10-29,0-47c4,21,0,41,10,48C1617.5,301.5,1614.5,300.5,1614.5,300.5Z"
       id="path73" />
    <path
       class="cls-24"
       d="M1658.5,264.5c0-.12-.1.57-.25,1.3-1.09,5.4-4.91,26.16,8.28,41.4,12,1.3,5.54.55,5.54.55S1663.5,294.5,1658.5,264.5Z"
       id="path75" />
    <path
       class="cls-9"
       d="M1579.5,251.5s-32,19-26-12c-16-19,6-21,6-21s9-1,12,5c8-11,15,1,15,1a8.22,8.22,0,0,1,0,9c14,0,9,13,9,13S1589.5,259.5,1579.5,251.5Z"
       id="path77" />
    <path
       class="cls-25"
       d="M1566.26,298.05c1.24.45,10.24-34.55,9.24-47.55s6.73,45.14,1,48C1572.5,300.5,1566.26,298.05,1566.26,298.05Z"
       id="path79" />
    <path
       class="cls-25"
       d="M1609.5,299.5s-10-29,0-47c4,21,0,41,10,48C1612.5,300.5,1609.5,299.5,1609.5,299.5Z"
       id="path81" />
    <path
       class="cls-25"
       d="M1653.5,263.5c0-.12-.1.57-.25,1.3-1.09,5.4-4.91,26.16,8.28,41.4,12,1.3,5.54.55,5.54.55S1658.5,293.5,1653.5,263.5Z"
       id="path83" />
    <path
       class="cls-25"
       d="M1688.5,279.5s2.34,19.5-1.83,29.25c9.83.75,6.81.72,6.81.72s1.42-17-.28-25.65C1692.43,279.86,1691,277.62,1688.5,279.5Z"
       id="path85" />
    <path
       class="cls-24"
       d="M1693.5,280.5s2.34,19.5-1.83,29.25c9.83.75,6.81.72,6.81.72s1.42-17-.28-25.65C1697.43,280.86,1696,278.62,1693.5,280.5Z"
       id="path87" />
    <path
       class="cls-24"
       d="M1570.26,298.05c1.24.45,10.24-34.55,9.24-47.55s6.73,45.14,1,48C1576.5,300.5,1570.26,298.05,1570.26,298.05Z"
       id="path89" />
    <path
       class="cls-24"
       d="M1613.5,299.5s-10-29,0-47c4,21,0,41,10,48C1616.5,300.5,1613.5,299.5,1613.5,299.5Z"
       id="path91" />
    <path
       class="cls-24"
       d="M1657.5,263.5c0-.12-.1.57-.25,1.3-1.09,5.4-4.91,26.16,8.28,41.4,12,1.3,5.54.55,5.54.55S1662.5,293.5,1657.5,263.5Z"
       id="path93" />
    <path
       class="cls-24"
       d="M1692.5,279.5s2.34,19.5-1.83,29.25c9.83.75,6.81.72,6.81.72s1.42-17-.28-25.65C1696.43,279.86,1695,277.62,1692.5,279.5Z"
       id="path95" />
    <path
       class="cls-24"
       d="M1569.26,298.05c1.24.45,10.24-34.55,9.24-47.55s6.73,45.14,1,48C1575.5,300.5,1569.26,298.05,1569.26,298.05Z"
       id="path97" />
    <path
       class="cls-24"
       d="M1612.5,299.5s-10-29,0-47c4,21,0,41,10,48C1615.5,300.5,1612.5,299.5,1612.5,299.5Z"
       id="path99" />
    <path
       class="cls-24"
       d="M1656.5,263.5c0-.12-.1.57-.25,1.3-1.09,5.4-4.91,26.16,8.28,41.4,12,1.3,5.54.55,5.54.55S1661.5,293.5,1656.5,263.5Z"
       id="path101" />
    <path
       class="cls-24"
       d="M1691.5,279.5s2.34,19.5-1.83,29.25c9.83.75,6.81.72,6.81.72s1.42-17-.28-25.65C1695.43,279.86,1694,277.62,1691.5,279.5Z"
       id="path103" />
    <path
       class="cls-26"
       d="M1614.5,253.5s-21,3-14-15c2-6,4-6,7-5,4-13,17-18,23-9,13,0,21,17,7,20C1640.5,264.5,1627.5,270.5,1614.5,253.5Z"
       id="path105" />
    <path
       class="cls-27"
       d="M1579.5,244.5s3-10-8-8S1575.5,252.5,1579.5,244.5Z"
       id="path107" />
    <path
       class="cls-28"
       d="M1652.5,250.5s-18-2-4,18c4,1,8,2,10-4,5,6,13,9,15,1s2-8-6-10C1667.5,242.5,1653.5,240.5,1652.5,250.5Z"
       id="path109" />
    <path
       class="cls-29"
       d="M1618.5,242.5s6,7,9-1S1614.5,235.5,1618.5,242.5Z"
       id="path111" />
    <path
       class="cls-30"
       d="M1703,270c8,5,13,24-6,10-9,9-25-7-8-11C1687,257,1702,253,1703,270Z"
       id="path113" />
    <path
       class="cls-26"
       d="M1654.5,260.5s2,6,8,0S1649.5,252.5,1654.5,260.5Z"
       id="path115" />
    <path
       class="cls-31"
       d="M1691.5,274.5s3-6,8,0S1688.5,280.5,1691.5,274.5Z"
       id="path117" />
    <path
       class="cls-5"
       d="M194.08,347.49s-10.28,4.89-.49,10.77,16.64.49,16.64.49,7.83-10.28-4.4-12.24C200,345,194.08,347.49,194.08,347.49Z"
       id="path119" />
    <path
       class="cls-32"
       d="M395.78,677.13s-18.34,7.2-.87,15.84,29.69.71,29.69.71,14-15.11-7.86-18C406.26,673.53,395.78,677.13,395.78,677.13Z"
       id="path121" />
    <path
       class="cls-5"
       d="M262.19,353.76s-22.81,9-4.8,12.6,18.61-4.8,18.61-4.8S276,351.36,262.19,353.76Z"
       id="path123" />
    <path
       class="cls-5"
       d="M301.68,332.57s-4.77,4.12.36,6.12,12.52.85,13.94,0,2.28-5.92-4-6.66A26.9,26.9,0,0,0,301.68,332.57Z"
       id="path125" />
    <path
       class="cls-5"
       d="M295.68,353.57s-4.77,4.12.36,6.12,12.52.85,13.94,0,2.28-5.92-4-6.66A26.9,26.9,0,0,0,295.68,353.57Z"
       id="path127" />
    <path
       class="cls-5"
       d="M251.68,336.57s-4.77,4.12.36,6.12,12.52.85,13.94,0,2.28-5.92-4-6.66A26.9,26.9,0,0,0,251.68,336.57Z"
       id="path129" />
    <path
       class="cls-33"
       d="M489.24,471.54s-10.82,9.37.81,13.89,28.41,1.93,31.64,0,5.18-13.42-9-15.11S489.24,471.54,489.24,471.54Z"
       id="path131" />
    <path
       class="cls-32"
       d="M299.77,810.33S277.33,824,303.51,829s26.17,0,27.42-3.74S324.7,804.1,299.77,810.33Z"
       id="path133" />
    <path
       class="cls-5"
       d="M192.11,390.28s-14.88-4.58-11.33,4.2,26.2,5.73,29,4.2,7.09-6.87-4.25-7.63S192.82,390.67,192.11,390.28Z"
       id="path135" />
    <path
       class="cls-32"
       d="M227.73,580.29s-19.41-8.43-14.79,7.72,34.2,10.53,37.9,7.72,9.24-12.64-5.55-14S228.66,581,227.73,580.29Z"
       id="path137" />
    <path
       class="cls-5"
       d="M117.71,437.38s-16.89-3.84-13.82,13.06c3.84,8.45,19.2,3.84,21.5,0S123.09,437.38,117.71,437.38Z"
       id="path139" />
    <path
       class="cls-32"
       d="M290,675.6s-24.42-6.12-20,20.81c5.55,13.47,27.74,6.12,31.07,0S297.79,675.6,290,675.6Z"
       id="path141" />
    <path
       class="cls-32"
       d="M377,556.6s-24.42-6.12-20,20.81c5.55,13.47,27.74,6.12,31.07,0S384.79,556.6,377,556.6Z"
       id="path143" />
    <path
       class="cls-5"
       d="M167,418s-20-1-9,14,17-3,17-3S175,417,167,418Z"
       id="path145" />
    <path
       class="cls-32"
       d="M179.27,510S147.45,508.9,165,525.43,192,522.12,192,522.12,192,508.9,179.27,510Z"
       id="path147" />
    <path
       class="cls-5"
       d="M190,455.31s-9.72-1-7.77,7.77,10.19,8.26,11.65,6.8,5.83-2.91,2.43-10.68A29.09,29.09,0,0,0,190,455.31Z"
       id="path149" />
    <path
       class="cls-5"
       d="M245.66,475.6s-5.13-2.56-5.77,2.89,4.81,4.16,5.77,2.88A5.31,5.31,0,0,0,245.66,475.6Z"
       id="path151" />
    <path
       class="cls-5"
       d="M160.66,357.6s-5.13-2.56-5.77,2.89,4.81,4.16,5.77,2.88A5.31,5.31,0,0,0,160.66,357.6Z"
       id="path153" />
    <path
       class="cls-33"
       d="M402.49,454.09s-15.57-5.49-18.32,4.58,15.57,21.06,21.06,11.9S406.15,455.92,402.49,454.09Z"
       id="path155" />
    <path
       class="cls-32"
       d="M121,838c-1,0-24,0-11,13s40,6,42,1,6-10-4-14S121,838,121,838Z"
       id="path157" />
    <path
       class="cls-32"
       d="M234,760c-1,0-24,0-11,13s40,6,42,1,6-10-4-14S234,760,234,760Z"
       id="path159" />
    <path
       class="cls-32"
       d="M359,749c-1,0-24,0-11,13s40,6,42,1,6-10-4-14S359,749,359,749Z"
       id="path161" />
    <path
       class="cls-32"
       d="M205,878.44c-1,0-24,0-11-13s40-6,42-1,6,10-4,14S205,878.44,205,878.44Z"
       id="path163" />
    <path
       class="cls-33"
       d="M486.25,436.55s-10.11,7.07,2.53,11.12,15.67-11.12,15.17-12.13-7-2.84-10.62-1A46.65,46.65,0,0,0,486.25,436.55Z"
       id="path165" />
    <path
       class="cls-33"
       d="M445.25,458.55s-10.11,7.07,2.53,11.12,15.67-11.12,15.17-12.13-7-2.84-10.62-1A46.65,46.65,0,0,0,445.25,458.55Z"
       id="path167" />
    <path
       class="cls-32"
       d="M334.5,636.33s-13.39,8.41,3.34,13.21,20.76-13.21,20.09-14.42-9.23-3.36-14.06-1.2A67,67,0,0,0,334.5,636.33Z"
       id="path169" />
    <path
       class="cls-32"
       d="M281.74,505.59s-16.67,12.23,4.17,19.23,25.84-19.23,25-21-11.49-4.9-17.5-1.75A75.48,75.48,0,0,0,281.74,505.59Z"
       id="path171" />
    <path
       class="cls-34"
       d="M65.16,18.07S-17.37-91.55-81.84-2.57s0,153.46,0,153.46S43,232.61,48.4,278.56c0,0,14.19-60.61,134.11-116.06,86.4-24.5,69.64-198.59-12.89-214.07,0,0-89-16.76-91.56,64.48C69,21.94,65.16,18.07,65.16,18.07Z"
       id="path173" />
    <path
       class="cls-35"
       d="M58.72,252.77s9,76.08,25.79,92.84c-33.53,3.87-37.4,0-37.4,0S36.79,218,42,189.58c-25.79-12.9-82.53-61.9-87.69-78.67C-7,149.6-7,149.6,42,178c3.87-34.82,5.16-58,5.16-58S11,87.7,3.27,67.07c-21.93-25.79-74.8-21.92-74.8-21.92s18.06-12.9,65.77,7.73C-27.68,9-22.52,0-22.52,0L5.85,59.33S5.85,27.09,12.29,9c.55,60.56-7,65.32,37.4,96.72C57.43,49,76.77,38.7,76.77,38.7S54.85,82.54,60,127.68c49-52.87,69.63-63.19,69.63-63.19S145.12,62,145.12-11.59c6.45,15.47,3.87,38.68-2.58,65.76C172.2,36.12,187.67,38.7,187.67,38.7S100,81.25,63.88,135.42c-5.16,28.37-7.74,60.61-9,95.42,37.4-55.45,58-63.18,58-63.18l2.58-25.8L118,162.5s27.08-18.06,36.1-21.93-3.86,7.74-3.86,7.74l18.05,3.87a36,36,0,0,0-23.21,3.87C133.51,162.5,75.48,198.6,58.72,252.77Z"
       id="path175" />
    <path
       class="cls-5"
       d="M51.39,503.91S29.81,473.2,34,445.84c-40,0-50.51-4.21-50.51-4.21s6.31,36.93,0,58.45C31.92,506.87,51.39,503.91,51.39,503.91Z"
       id="path177" />
    <path
       class="cls-36"
       d="M229.75,633.15s29.46,164.16,50.51,199.93C145.56,860.44-67,932-67,932l-2.46-246S206.6,628.94,229.75,633.15Z"
       id="path179" />
    <path
       class="cls-10"
       d="M-64.9,494.24c-.28-3,157.85,33.68,269.39-18.94,0,0,31.57,98.92,90.5,149.43C162.4,641.56-77.52,681.55-85.94,692.08S-60.69,538.44-64.9,494.24Z"
       id="path181" />
    <path
       class="cls-18"
       d="M-27,429s-4.21,4.21,0,8.42,65.24,14.73,73.66,4.21C46.65,429,4.56,431.1-27,429Z"
       id="path183" />
    <path
       class="cls-18"
       d="M148.41,865.8s-36.52-119-13.37-146.36C162.4,704.7,194,711,194,711s20,93.57,41.59,132C235.56,843,149.16,864.84,148.41,865.8Z"
       id="path185" />
    <polygon
       class="cls-18"
       points="0.35 698.39 17.18 774.15 97.16 757.32 76.11 689.97 0.35 698.39"
       id="polygon187" />
    <path
       class="cls-37"
       d="M1629.64,447s-12.58,81,17.19,83c30.26,2,26.82-48,22-87-6.19,35-11.7,39-11.7,39s-11.69-19-11-35c-2.75,27-2.06,27-6.19,39C1633.07,471,1627.57,468,1629.64,447Z"
       id="path189" />
    <path
       class="cls-24"
       d="M236,822.85s-10.27-13.2,3.72-31.47c2.89,27.51,7.84,31.21,12.59,29.82-2.9-27.5,11.7-30.48,11.7-30.48s-5.13,22.12,2.4,30.22c6.51-17.37,14.82-19.8,14.82-19.8s-8,25.54-.31,29.73-32.05,9.38-32.05,9.38S238,825.57,236,822.85Z"
       id="path191" />
    <path
       class="cls-7"
       d="M1622,447s-18.28,81,25,83c44,2,39-48,32-87-9,35-17,39-17,39s-17-19-16-35c-4,27-3,27-9,39C1627,471,1619,468,1622,447Z"
       id="path193" />
    <path
       class="cls-24"
       d="M1647,530a230.36,230.36,0,0,0,2.15,47.14c3.51,23,11.63,49,29.85,63.86,9-2,6-4,6-4s-33-29-32-107Z"
       id="path195" />
    <path
       class="cls-38"
       d="M1828,641s17-25,32-2-11,17-11,17S1819,656,1828,641Z"
       id="path197" />
    <path
       class="cls-38"
       d="M1649,576s-17-31-37-18C1612,558,1611,586,1649,576Z"
       id="path199" />
    <path
       class="cls-24"
       d="M1804,599c1,0,24,15,14,52s-28,68-28,68l15,4s28-73,23-96-20-34-20-34Z"
       id="path201" />
    <path
       class="cls-38"
       d="M1656.42,573.82S1672,551,1683,567,1660.85,586.63,1656.42,573.82Z"
       id="path203" />
    <path
       class="cls-38"
       d="M1609,624c-.26.06.62.31,1.18.51,7.06,2.55,39.26,10.49,44.82,48.49,54-12,60-3,60-3s-10-28,19-46c0,0-38,6-35,26-6-7-12-17-2-37-14-3-31,17-28,33C1669,646,1633,613,1609,624Z"
       id="path205" />
    <path
       class="cls-39"
       d="M1684,858s12,80-23,112c9,7,25,3,25,3s5.77,1.54,6,0c2.21-15,9.34-99.28,29-115C1700,865,1684,858,1684,858Z"
       id="path207" />
    <path
       class="cls-38"
       d="M1777,721s1-24-6-36c16,10,12,5,25,33,14-19,50-23,50-23s-28,12-26,25c24-6,26,2,26,2s-18,0-17,11C1798,733,1777,721,1777,721Z"
       id="path209" />
    <path
       class="cls-18"
       d="M1626,802s55,122,160,19C1720,841,1688,842,1626,802Z"
       id="path211" />
    <path
       class="cls-40"
       d="M1647.5,817.5s16,31,47,45.5"
       id="path213" />
    <path
       class="cls-40"
       d="M1764.5,828.5s-23,23-61,35.5"
       id="path215" />
    <path
       class="cls-40"
       d="M1668.5,826.5c0,2.09,17,31.29,27,36.5"
       id="path217" />
    <path
       class="cls-40"
       d="M1737.5,833.5s-8,10.54-37,29.5"
       id="path219" />
    <path
       class="cls-40"
       d="M1697,863c-7.5-10.52-7.5-30.5-7.5-30.5"
       id="path221" />
    <path
       class="cls-40"
       d="M1710.5,834.5s1,13.72-12,28.5"
       id="path223" />
    <path
       class="cls-41"
       d="M1625,803s32.4-62.91,120.49-32.95C1778.9,789.06,1787,822,1787,822S1695.88,860,1625,803Z"
       id="path225" />
    <path
       class="cls-38"
       d="M1631,943c-.16,0,.38.23.72.38,4.35,1.87,24.18,7.7,27.6,35.62,33.26-8.82,37-2.2,37-2.2s-6.16-20.57,11.7-33.8c0,0-23.4,4.41-21.55,19.1-3.7-5.14-7.39-12.49-1.23-27.18-8.62-2.2-19.09,12.49-17.25,24.24C1668,959.16,1645.81,934.92,1631,943Z"
       id="path227" />
  </g>
  <g
     id="Details"
     clip-path="url(#clipPath1772)">
    <path
       class="cls-42"
       d="M135.5,192.5s6,12,15,0c14,9,17-2,17-2,6,6,13,7,15,0,11,6,9-4,9-4"
       id="path230" />
    <path
       class="cls-42"
       d="M130.5,207.5s6,10,16-1c12,7,16-1,16-1,8,5,13,5,16-2,13,5,12,3,14-3,10,7,9-2,9-2"
       id="path232" />
    <path
       class="cls-42"
       d="M211.5,208.5s0,12-11,4c-1,8-9,7-13,4-2,5-9,9-14,3,0,0-6,9-13,2-9,11-16,4-16,2-3,6-10,7-12,1,0,0-7,6-8-1"
       id="path234" />
    <path
       class="cls-42"
       d="M116.5,236.5s4,8,9,1c9,6,8,4,12,1,9,4,13,5,17-1,10,4,9,2,12-2,0,0,10,7,13-2,11,3,11,1,12-3,7,3,13,2,14-3,5,3,11,2,9-4,0,0,12,5,9-5"
       id="path236" />
    <path
       class="cls-43"
       d="M198.5,257.5s2,15,4,23"
       id="path238" />
    <line
       class="cls-43"
       x1="186.5"
       y1="271.5"
       x2="214.5"
       y2="268.5"
       id="line240" />
    <path
       class="cls-44"
       d="M145.5,279.5s4,34,9,44c-5-24-7-45-7-45Z"
       id="path242" />
    <path
       class="cls-44"
       d="M151.5,277.5s11,57,10,48-7-48-7-48Z"
       id="path244" />
    <path
       class="cls-44"
       d="M160.5,277.5s9,44,12,49c-1-10-8-48-8-48Z"
       id="path246" />
    <path
       class="cls-45"
       d="M270.5,251.5s7,45,2,71h7s1-67-4-73Z"
       id="path248" />
    <path
       class="cls-45"
       d="M287.5,249.5c-2,7,3,72,3,72a68.89,68.89,0,0,0-7,1c1-5-2-74-2-74Z"
       id="path250" />
    <path
       class="cls-45"
       d="M290.5,250.5s4,67,4,71h6c0-2-10-71-6-69Z"
       id="path252" />
    <polygon
       class="cls-46"
       points="321.5 253.5 323.5 267.5 347.5 265.5 347.5 251.5 321.5 253.5"
       id="polygon254" />
    <path
       class="cls-47"
       d="M257.5,148.5a15.65,15.65,0,0,1,10-4c3,5,1,6,1,6l-8,4S259.5,150.5,257.5,148.5Z"
       id="path256" />
    <path
       class="cls-47"
       d="M268.5,150.5l4-1s2,0,1,4c-3,1.3-4.95,2.23-6.13,2.86a9.65,9.65,0,0,0-1.87,1.14s-2.95-2-2-4.51A20.72,20.72,0,0,1,268.5,150.5Z"
       id="path258" />
    <path
       class="cls-47"
       d="M261.5,159.5l6-3s4,1,2,4l-7,4Z"
       id="path260" />
    <path
       class="cls-48"
       d="M97.5,303.5s3,20,4,28"
       id="path262" />
    <path
       class="cls-48"
       d="M113.5,301.5s4,18,4,28"
       id="path264" />
    <line
       class="cls-49"
       x1="464.5"
       y1="257.5"
       x2="472.5"
       y2="304.5"
       id="line266" />
    <line
       class="cls-49"
       x1="445.5"
       y1="263.5"
       x2="453.5"
       y2="304.5"
       id="line268" />
    <line
       class="cls-49"
       x1="483.5"
       y1="257.5"
       x2="490.5"
       y2="302.5"
       id="line270" />
    <line
       class="cls-49"
       x1="500.5"
       y1="255.5"
       x2="507.5"
       y2="300.5"
       id="line272" />
    <line
       class="cls-49"
       x1="517.5"
       y1="255.5"
       x2="524.5"
       y2="298.5"
       id="line274" />
    <line
       class="cls-49"
       x1="535.5"
       y1="259.5"
       x2="542.5"
       y2="297.5"
       id="line276" />
    <path
       class="cls-50"
       d="M282.5,164.5s-7,33-19,45"
       id="path278" />
    <path
       class="cls-50"
       d="M296.5,165.5s0,28-7,45"
       id="path280" />
    <path
       class="cls-50"
       d="M311.5,166.5s5,27,1,44"
       id="path282" />
    <path
       class="cls-50"
       d="M316.5,166.5s4,36,13,42"
       id="path284" />
    <path
       class="cls-50"
       d="M330.5,166.5s3,26,19,36"
       id="path286" />
    <path
       class="cls-50"
       d="M345.5,164.5s13,29,33,32"
       id="path288" />
    <path
       class="cls-51"
       d="M1474.5,253.5s0,22,8,41"
       id="path290" />
    <path
       class="cls-51"
       d="M1493.5,255.5s-1,25,7,39"
       id="path292" />
    <path
       class="cls-51"
       d="M1511.5,255.5s2,26,8,40"
       id="path294" />
    <path
       class="cls-52"
       d="M1720.5,134.5s20,10,36,4"
       id="path296" />
    <path
       class="cls-52"
       d="M1729.5,126.5s14,7,21,2"
       id="path298" />
    <path
       class="cls-52"
       d="M1737.5,115.5s5,4,9,1"
       id="path300" />
    <path
       class="cls-52"
       d="M1822.5,27.5s6,7,11,3"
       id="path302" />
    <path
       class="cls-52"
       d="M1816.5,35.5s7,12,18,5"
       id="path304" />
    <path
       class="cls-52"
       d="M1807.5,46.5s14,15,30,8"
       id="path306" />
    <path
       class="cls-52"
       d="M1798.5,56.5s20,21,42,12"
       id="path308" />
    <path
       class="cls-52"
       d="M1785.5,70.5s31,31,64,18"
       id="path310" />
    <path
       class="cls-52"
       d="M1771.5,82.5s45,45,88,25"
       id="path312" />
    <path
       class="cls-53"
       d="M1778.5,126.5a113.09,113.09,0,0,1,14,1c7,1,3,8,3,8l-17-1Z"
       id="path314" />
    <path
       class="cls-53"
       d="M1792.5,136.5s5,0,7,1,0,9-1,8l-14-1v-8.65Z"
       id="path316" />
    <path
       class="cls-53"
       d="M1852.5,202.5v11c0,1.71-7.17,1.8-13.33,1.55-4.62-.18-8.67-.55-8.67-.55v-11Z"
       id="path318" />
    <path
       class="cls-53"
       d="M1838.5,224.5l14,1v-10s-1,2-13,2C1837.5,220.5,1838.5,224.5,1838.5,224.5Z"
       id="path320" />
    <path
       class="cls-53"
       d="M1838.5,226.5h-5a7.2,7.2,0,0,0,0,7c2,4,19,2,19,2v-8Z"
       id="path322" />
    <path
       class="cls-54"
       d="M33.5,455.5s-12-1-18,0-2,10-2,10,19,3,20,0S33.5,455.5,33.5,455.5Z"
       id="path324" />
    <path
       class="cls-54"
       d="M23.5,466.5s-3,5,0,9,14,0,14,0l-3.56-8.67Z"
       id="path326" />
    <polygon
       class="cls-55"
       points="8.5 776.5 9.5 787.5 106.5 764.5 103.5 755.5 8.5 776.5"
       id="polygon328" />
    <path
       class="cls-56"
       d="M216.5,506.5c-3,13-12,18-29,7,0,12-16,20-28,7-4,12-10,17-31,4-4,13-27,13-39,2-4,12-18,17-36,0-7,18-27,9-38,0-9,9-11,20-44,0-23,21-37-2-37-2"
       id="path330" />
    <path
       class="cls-56"
       d="M-69.5,563.5s14,26,32,0c16,16,21,14,27,2,14,15,30,13,33-2,18,15,34,14,38,1,15,11,29,9,32-3,0,0,26,19,37-2,16,11,35,9,38-6,18,9,31,9,34-6,17,14,34,6,31-8"
       id="path332" />
    <path
       class="cls-56"
       d="M-77.5,615.5s13,33,29,6c11,27,28,14,38-1,14,28,26,9,33-8,12,17,38,17,38-3,6,12,26,23,32-4,19,17,28,7,33-7,11,11,28,20,37-5,17,12,24,10,29-5,7.81,17.53,28.31,18,31-7,21,13,27-11,27-11"
       id="path334" />
    <path
       class="cls-57"
       d="M32.5,697.5c1,1,7,34-16,77-2.48-12.41-5.34-25.45-8-37.12-4.84-21.22-9-37.88-9-37.88l77-10,9.93,32.4,10.73,35S55.5,743.5,48.5,696.5Z"
       id="path336" />
    <line
       class="cls-58"
       x1="7.5"
       y1="737.5"
       x2="86.5"
       y2="721.5"
       id="line338" />
    <line
       class="cls-58"
       x1="39.48"
       y1="694.31"
       x2="59.47"
       y2="765.23"
       id="line340" />
    <path
       class="cls-59"
       d="M152.5,863.5s-29-106-15-139c35-9,53-8,53-8s25,123,39,128c-49,13-77,19-77,19"
       id="path342" />
    <path
       class="cls-60"
       d="M144.5,791.5s1,6,6,0,18-4,18-4-12-7-18,0C144.5,786.5,144.5,791.5,144.5,791.5Z"
       id="path344" />
    <path
       class="cls-61"
       d="M1618.5,561.5s10,10,31,14"
       id="path346" />
    <path
       class="cls-61"
       d="M1656.5,573.5a41.12,41.12,0,0,0,24,0"
       id="path348" />
    <path
       class="cls-61"
       d="M1827.5,645.5s22-13,37,8"
       id="path350" />
    <path
       class="cls-62"
       d="M1654.5,788.5s-24-1-16,14,20,1,20,1S1665.5,795.5,1654.5,788.5Z"
       id="path352" />
    <path
       class="cls-62"
       d="M1701.77,816.41c.13.63,8.19,11.1,19.1,1.3s-3.27-17-3.27-17S1697.41,794.85,1701.77,816.41Z"
       id="path354" />
    <path
       class="cls-62"
       d="M1770.5,792.5s-7-2-4,4,9,12,13,9C1773.5,795.5,1770.5,792.5,1770.5,792.5Z"
       id="path356" />
    <path
       class="cls-62"
       d="M1738.5,771.5a4.05,4.05,0,0,1-.77-.23c-3.32-1.21-15.39-6.3-8.23,6.23,8,14,22,10,22,6S1738.5,771.5,1738.5,771.5Z"
       id="path358" />
    <path
       class="cls-62"
       d="M1700.81,762.3c-16,19.18-25.59,10.67-30.27,4.41C1676.74,763,1700.81,762.3,1700.81,762.3Z"
       id="path360" />
    <path
       class="cls-63"
       d="M1685.5,896.5s-10,15-26,13c21,8,28-1,28-1s-1,12-7,14,15,2,16-11c14,15,24,6,24,6S1701,907,1704,898C1692,897,1685.5,896.5,1685.5,896.5Z"
       id="path362" />
    <path
       class="cls-64"
       d="M1778.89,585.88s-5.19-17.81-38-15.84c11.37,16.11,34.4,22.2,34.4,22.2Z"
       id="path364" />
    <path
       class="cls-64"
       d="M1788.08,580.65s3.84-18.73-25.28-31.7c2.26,19.95,19.19,35.91,19.19,35.91Z"
       id="path366" />
    <path
       class="cls-64"
       d="M1799.35,578.82s11.33-16-8.83-40.07c-6.47,19.62,1.67,41.52,1.67,41.52Z"
       id="path368" />
    <path
       class="cls-64"
       d="M1775.71,595.37s-13.46-12.58-42.34,4.64c18.24,8.22,42.16,2.46,42.16,2.46Z"
       id="path370" />
    <path
       class="cls-64"
       d="M1772.18,593.44s-19.14,3.13-25,35.19c18.91-9.3,30.53-31,30.53-31Z"
       id="path372" />
    <path
       class="cls-64"
       d="M1784.89,606.88s-14.5,13.34-.6,41.59c10.66-18,7.8-41.47,7.8-41.47Z"
       id="path374" />
    <path
       class="cls-64"
       d="M1796.1,605.56s-7.78,17.76,17.43,36.74c2.17-20.25-10.65-39.64-10.65-39.64Z"
       id="path376" />
    <path
       class="cls-64"
       d="M1811.71,594s19.14.58,25.08,31.85c-18.93-6.78-30.59-26.91-30.59-26.91Z"
       id="path378" />
    <path
       class="cls-64"
       d="M1817.27,589.08s18-8,37.77,16.38c-20.58,2.53-40.59-9.67-40.59-9.67Z"
       id="path380" />
    <path
       class="cls-64"
       d="M1814,581.6s6.4-18.2,39.18-18.43c-12.48,16.91-36,24.56-36,24.56Z"
       id="path382" />
    <path
       class="cls-64"
       d="M1805.68,578.84s-6.58-17.28,20-38c.79,20.15-13.39,40.42-13.39,40.42Z"
       id="path384" />
    <path
       class="cls-65"
       d="M130.5,86.5c-2,3,2,23,17,15,9,10,23,17,31,8,15,6,26-10,23-14"
       id="path386" />
    <path
       class="cls-65"
       d="M195.76,66.82c3.6-.13,17.49-15.07,2.23-22.56,2.85-13.15.34-28.6-11.64-29.83C182.44-1.25,163-.81,161.54,4"
       id="path388" />
    <path
       class="cls-65"
       d="M113.5,17.5s17-6,11,13c6,18-18,12-18,12-18,10-19-4-19-4"
       id="path390" />
    <path
       class="cls-65"
       d="M90.5,140.5s17-6,11,13c6,18-18,12-18,12-18,10-19-4-19-4"
       id="path392" />
    <path
       class="cls-65"
       d="M46.22,63.62s-.31,18-16,5.76c-19-.67-5-21.06-5-21.06C22.16,28,35.63,31.92,35.63,31.92"
       id="path394" />
    <path
       class="cls-66"
       d="M1810,565.45s-7.31-19.37,22.07-40.11c.9,22.09-14.77,43.27-14.77,43.27Z"
       id="path396" />
    <path
       class="cls-66"
       d="M1798.71,567.09s-15.63-14,.72-45.45c11.22,19.26,7.27,45,7.27,45Z"
       id="path398" />
    <path
       class="cls-66"
       d="M1787.87,573.19s-20.23-6.43-18.87-41.63c18.47,13,26,38,26,38Z"
       id="path400" />
    <path
       class="cls-66"
       d="M1819,571.7s3.21-20.39,39.26-24.88c-10.18,19.79-34.43,31-34.43,31Z"
       id="path402" />
    <path
       class="cls-66"
       d="M1822.4,579s18.43-10.32,44.6,14.12c-22.3,4.69-46.54-6.6-46.54-6.6Z"
       id="path404" />
    <path
       class="cls-66"
       d="M1813.74,587.2s21.19,1.92,27.93,36.53c-21-8.69-34-31.49-34-31.49Z"
       id="path406" />
    <path
       class="cls-66"
       d="M1809.6,596.49s18.36,10.44,9.32,44.56c-15.2-16.49-17-42.49-17-42.49Z"
       id="path408" />
    <path
       class="cls-66"
       d="M1790.59,599.54s-16,13.62-.45,45.46c11.71-19,8.42-44.84,8.42-44.84Z"
       id="path410" />
    <path
       class="cls-66"
       d="M1779.31,594.58s-20.6,5.2-21.49,40.41c19.27-11.85,28.32-36.39,28.32-36.39Z"
       id="path412" />
    <path
       class="cls-66"
       d="M1777.22,585.67s-17.48-11.78-45.66,10.46c21.83,6.47,47-2.82,47-2.82Z"
       id="path414" />
    <path
       class="cls-66"
       d="M1782.47,577.55s-5.77-19.86-42.12-20c12.61,18.43,38.1,26.73,38.1,26.73Z"
       id="path416" />
    <path
       class="cls-67"
       d="M312.5,320.5l-3-24s27-21,63-6c7,31,5,25,5,25l-3.24.25L372,308l-57,4,1,8.23Z"
       id="path418" />
    <path
       class="cls-68"
       d="M1804,565s-11-19,15-46c5,23-7,48-7,48Z"
       id="path420" />
    <path
       class="cls-68"
       d="M1792.82,568.75s-18.46-11.88-7.68-47.77c15,18.17,15.71,45.89,15.71,45.89Z"
       id="path422" />
    <path
       class="cls-68"
       d="M1782.94,577.07s-21.74-3.11-26.86-40.24c21.16,10.3,33.38,35.2,33.38,35.2Z"
       id="path424" />
    <path
       class="cls-68"
       d="M1814.28,569.94s-.51-22,35.27-33.11c-6.68,22.57-29.22,38.71-29.22,38.71Z"
       id="path426" />
    <path
       class="cls-68"
       d="M1819.08,577s16.81-14.12,47.9,6.81c-21.78,8.91-48.48,1.42-48.48,1.42Z"
       id="path428" />
    <path
       class="cls-68"
       d="M1817.06,587.28s21.88-1.79,35.12,33.28c-22.92-5.35-40.36-26.91-40.36-26.91Z"
       id="path430" />
    <path
       class="cls-68"
       d="M1809.32,597.6s20.57,7.66,17.7,45c-18.49-14.56-25.15-41.48-25.15-41.48Z"
       id="path432" />
    <path
       class="cls-68"
       d="M1790.57,604.21s-13.72,17.14,8,47.72c8.38-22,.26-48.5.26-48.5Z"
       id="path434" />
    <path
       class="cls-68"
       d="M1778.2,601s-20,9.14-14.35,46.2c17.37-15.87,22-43.21,22-43.21Z"
       id="path436" />
    <path
       class="cls-68"
       d="M1774.43,592.06s-19.93-9.21-44.44,19.15c23.36,2.87,47.16-11.37,47.16-11.37Z"
       id="path438" />
    <path
       class="cls-68"
       d="M1778.26,582.61s-9.53-19.77-46.48-13.44c16.22,17.06,43.64,21.18,43.64,21.18Z"
       id="path440" />
    <polygon
       class="cls-9"
       points="315.63 309.89 314 300 320 297 322 309 315.63 309.89"
       id="polygon442" />
    <ellipse
       class="cls-69"
       cx="1798.69"
       cy="585.45"
       rx="26.79"
       ry="17.51"
       transform="translate(47.62 1300.84) rotate(-40.25)"
       id="ellipse444" />
    <path
       class="cls-9"
       d="M326.75,308.5,325,297s3-4,10-3c1,9,2,14,2,14Z"
       id="path446" />
    <path
       class="cls-9"
       d="M338,294l2,14,10-1-2-15S339,290,338,294Z"
       id="path448" />
    <path
       class="cls-9"
       d="M352,293l2,14,8-1-2-12S357,291,352,293Z"
       id="path450" />
    <polygon
       class="cls-9"
       points="365.85 305.49 371 305 369 295 364 294 365.85 305.49"
       id="polygon452" />
    <polygon
       class="cls-70"
       points="314 309 314 312 374 308 373 305 314 309"
       id="polygon454" />
    <path
       class="cls-71"
       d="M1780.28,596.72c1.65,1.52,5.06.77,9.06-1.63,3-1.81,4.19-6.75,7.36-10.19,3.82-4.14,8.79-6.28,10.21-9.85,1.31-3.31,1.42-6,0-7.25-2.9-2.67-11.21,1.64-18.57,9.62S1777.39,594.05,1780.28,596.72Z"
       id="path456" />
  </g>
  <g
     id="Layer_6"
     data-name="Layer 6">
    <rect
       class="cls-74"
       x="654.58"
       y="65.94"
       width="626.85"
       height="341.81"
       transform="translate(-11.13 51.32) rotate(-3.02)"
       id="rect464" />
    <rect
       class="cls-74"
       width="1920"
       height="1080"
       id="rect466" />
  </g>
</svg>
